<svg xmlns="http://www.w3.org/2000/svg" width="60" height="60" viewBox="0 0 500 500">
<g>
<path d="M 281.56,338.50 L 282.82,338.92 L 282.48,338.87 L 282.05,338.78 L 281.36,338.44 L 281.04,338.24 L 281.03,338.24 M 285.61,338.78 L 285.21,338.83 L 285.62,338.78 M 290.05,334.78 L 288.77,336.36 L 288.16,337.06 L 287.12,337.98 L 286.61,338.37 L 286.01,338.62 L 286.62,338.36 L 287.13,337.96 L 288.17,337.04 L 288.78,336.34 L 290.06,334.77 M 279.43,335.65 L 279.41,335.61 L 279.41,335.56 M 273.50,250.73 L 277.37,252.92 L 279.86,254.58 L 281.05,255.49 L 283.38,257.37 L 284.48,258.38 L 286.63,260.46 L 287.63,261.56 L 289.57,263.79 L 290.45,264.96 L 292.14,267.32 L 292.89,268.54 L 294.32,271.00 L 294.92,272.25 L 296.04,274.77 L 296.48,276.04 L 297.90,279.85 L 298.39,281.03 L 298.60,281.53 L 299.02,282.44 L 299.18,282.75 L 299.67,284.23 L 299.79,285.44 L 299.74,286.23 L 299.59,287.97 L 299.40,289.12 L 298.94,291.63 L 298.60,293.25 L 296.42,300.98 L 294.40,306.33 L 293.15,309.02 L 290.50,314.39 L 288.98,316.99 L 285.82,322.11 L 284.09,324.48 L 282.35,326.93 L 281.39,328.36 L 281.00,328.98 L 280.30,330.18 L 280.04,330.70 L 279.58,331.72 L 279.44,332.14 L 279.57,331.32 L 279.67,331.04 L 279.76,330.39 L 279.78,330.05 L 279.67,329.20 L 279.59,328.73 L 279.24,327.56 L 279.03,326.92 L 278.40,325.30 L 278.05,324.43 L 277.08,322.27 L 276.56,321.11 L 275.22,318.29 L 274.49,316.79 L 272.73,313.19 L 269.56,306.81 L 258.62,284.91 L 253.59,290.28 L 254.14,289.67 L 257.15,286.10 L 258.51,284.17 L 261.13,280.23 L 262.26,278.16 L 264.41,273.97 L 265.28,271.83 L 266.89,267.54 L 267.46,265.40 L 268.45,261.13 L 268.68,259.06 L 268.98,254.96 L 268.84,253.02 L 268.50,248.22 M 297.51,323.80 L 297.35,324.03 L 297.64,323.57 M 301.23,317.27 L 300.16,319.15 L 301.88,315.86 M 210.51,312.56 L 206.44,313.30 L 204.33,313.65 L 199.74,314.17 L 195.08,314.64 L 189.62,314.79 L 195.10,314.63 L 199.77,314.16 L 204.37,313.64 L 206.48,313.29 L 210.56,312.55 M 239.57,300.86 L 235.98,302.82 L 234.15,303.78 L 230.32,305.60 L 228.38,306.49 L 224.40,308.12 L 222.39,308.91 L 218.33,310.31 L 216.56,310.83 L 218.51,310.19 L 219.85,309.71 L 225.36,307.61 L 228.18,306.38 L 233.81,303.83 L 236.50,302.46 L 239.95,300.63 M 305.59,307.36 L 305.42,307.77 L 306.02,306.08 M 310.42,287.25 L 310.10,289.92 L 309.50,293.50 L 308.76,297.09 L 308.25,298.81 L 309.36,294.06 L 309.77,291.64 L 310.44,286.98 M 364.76,273.73 L 364.52,273.78 L 363.73,273.84 L 362.84,273.60 M 368.89,270.01 L 368.82,270.53 L 368.53,271.35 L 368.37,271.73 L 367.89,272.33 L 367.30,272.76 L 368.23,271.76 L 368.53,270.98 L 368.94,269.49 M 310.82,270.55 L 310.85,272.64 L 310.76,269.64 M 311.81,211.63 L 314.43,211.81 L 315.63,211.96 L 317.96,212.31 L 319.05,212.56 L 321.15,213.11 L 322.15,213.47 L 324.09,214.24 L 325.03,214.71 L 326.87,215.73 L 327.78,216.34 L 329.58,217.62 L 330.50,218.37 L 332.33,219.94 L 333.27,220.84 L 337.47,225.22 L 340.14,228.39 L 341.41,230.09 L 343.89,233.57 L 345.07,235.43 L 347.36,239.22 L 348.44,241.23 L 350.55,245.32 L 351.53,247.48 L 353.44,251.86 L 354.32,254.15 L 356.02,258.81 L 356.80,261.24 L 358.30,266.18 L 358.97,268.74 L 359.61,270.76 L 359.66,270.87 L 359.15,270.01 L 358.86,269.18 L 357.97,267.88 L 357.74,267.61 L 357.27,267.24 L 356.60,267.00 L 356.40,267.00 L 355.41,266.81 L 354.83,266.69 L 353.25,266.30 L 352.41,266.08 L 350.45,265.54 L 347.30,264.61 L 345.89,264.17 L 342.46,263.15 L 340.68,262.63 L 336.74,261.48 L 332.74,260.33 L 324.47,258.00 L 322.49,257.45 L 318.83,256.44 L 317.08,255.96 L 314.12,255.17 L 313.44,254.99 L 312.25,254.68 L 311.70,254.54 L 310.79,254.31 L 310.38,254.21 L 309.79,254.08 L 309.30,254.00 L 309.16,254.00 L 309.00,254.45 L 308.94,254.74 L 308.96,255.72 L 308.99,256.26 L 309.18,257.69 L 309.65,260.25 L 309.87,261.29 L 310.16,263.33 L 309.96,262.03 L 309.16,257.60 L 308.61,255.51 L 307.42,251.40 L 306.67,249.45 L 305.06,245.59 L 304.10,243.75 L 302.07,240.11 L 300.88,238.35 L 298.39,234.87 L 296.97,233.16 L 294.02,229.79 L 292.36,228.12 L 289.11,224.81 L 287.21,222.82 L 286.45,221.99 L 285.08,220.47 L 284.66,219.96 L 284.28,219.49 L 284.17,219.34 L 284.00,219.07 L 284.00,219.02 L 284.57,218.47 L 285.47,217.89 L 286.13,217.53 L 287.57,216.74 L 288.43,216.31 L 290.25,215.41 L 291.25,214.95 L 293.48,213.95 L 294.79,213.39 L 295.39,213.16 L 297.66,212.38 L 298.79,212.15 L 301.09,211.77 L 302.48,211.68 L 303.93,211.61 L 304.76,211.59 L 306.50,211.56 L 307.50,211.55 M 310.38,264.96 L 310.52,266.61 L 310.36,264.81 M 271.11,228.06 L 271.89,228.18 L 272.49,228.42 L 273.88,228.99 L 274.90,229.45 L 277.02,230.65 L 278.75,231.80 L 279.69,232.49 L 283.60,235.54 L 285.31,237.13 L 286.96,238.68 L 287.67,239.37 L 289.02,240.68 L 289.53,241.20 L 290.45,242.14 L 290.71,242.43 L 291.07,242.88 L 291.00,242.87 L 290.53,242.74 L 289.98,242.54 L 289.62,242.40 L 287.96,241.73 L 287.00,241.30 L 283.83,240.50 L 281.13,240.25 L 279.56,240.27 L 276.29,240.42 L 274.51,240.63 L 270.88,241.16 L 269.00,241.57 L 267.78,241.71 L 267.08,241.65 L 266.79,241.53 L 266.22,241.23 L 265.97,241.00 L 265.49,240.45 L 265.26,240.09 L 264.71,238.92 L 264.59,238.20 L 264.66,237.81 L 264.89,236.98 L 265.16,236.47 L 265.79,235.37 L 266.26,234.65 L 268.16,231.71 L 268.75,230.78 L 268.99,230.39 L 269.44,229.66 L 269.59,229.40 L 270.29,228.39 L 270.77,228.06 M 226.81,228.27 L 227.49,228.70 L 227.87,229.01 L 229.43,230.49 L 230.20,231.41 L 231.66,233.33 L 232.17,234.24 L 232.63,235.13 L 232.78,235.53 L 233.00,236.27 L 233.00,236.56 L 232.92,236.92 L 232.78,237.17 L 232.44,237.72 L 232.19,238.04 L 231.01,239.39 L 230.25,240.05 L 229.32,240.84 L 228.90,241.15 L 228.80,241.20 L 228.69,241.22 L 228.75,241.12 L 228.95,240.84 L 229.18,240.58 L 230.04,239.43 L 230.24,238.74 L 230.12,238.33 L 229.74,237.41 L 229.30,236.75 L 228.82,236.05 L 228.51,235.63 L 227.84,234.74 L 227.43,234.21 L 226.12,232.46 L 225.42,231.47 L 225.15,231.06 L 224.67,230.28 L 224.51,229.97 L 224.25,229.39 L 224.19,229.16 L 224.19,228.42 L 224.49,228.24 L 225.28,228.00 L 225.96,228.00 M 196.20,219.02 L 196.62,219.15 L 196.96,219.30 L 197.74,219.66 L 198.28,219.92 L 199.45,220.50 L 200.20,220.88 L 201.81,221.69 L 202.78,222.19 L 205.38,223.53 L 206.78,224.27 L 207.33,224.57 L 208.33,225.14 L 208.69,225.37 L 209.33,225.80 L 209.53,225.98 L 209.84,226.32 L 209.89,226.47 L 209.92,226.74 L 209.85,226.87 L 209.31,227.37 L 208.77,227.67 L 207.27,228.33 L 206.36,228.57 L 204.51,228.95 L 203.75,228.96 L 202.35,228.88 L 201.72,228.70 L 201.52,228.51 L 201.19,228.08 L 201.11,227.74 L 201.00,226.98 L 201.00,226.44 L 200.78,225.17 L 200.42,224.25 L 200.14,223.78 L 198.78,221.86 L 197.76,220.93 L 196.78,220.02 L 196.30,219.55 L 196.16,219.39 L 195.94,219.11 L 195.95,219.05 L 196.03,218.98 M 131.24,205.34 L 132.50,206.23 L 134.56,208.49 L 135.29,209.45 L 136.66,210.82 L 136.97,211.09 L 137.47,211.42 L 137.98,211.51 L 138.03,211.48 L 138.34,211.41 L 138.53,211.37 L 139.09,211.29 L 139.71,211.20 L 141.56,211.01 L 142.57,210.92 L 145.02,210.72 L 145.25,210.71 L 144.87,210.76 L 144.20,210.90 L 142.96,211.20 L 142.48,211.38 L 141.60,211.77 L 141.28,212.00 L 140.72,212.49 L 140.55,212.78 L 140.28,213.38 L 140.24,213.73 L 140.22,214.46 L 140.30,214.88 L 140.51,216.20 L 140.55,216.69 L 140.50,216.74 L 140.36,216.72 L 140.22,216.54 L 139.89,216.05 L 139.64,215.64 L 136.99,211.71 L 135.14,209.30 L 134.26,208.30 L 132.57,206.48 L 131.89,205.91 L 131.23,205.39 L 131.06,205.29 M 127.30,206.25 L 126.78,206.76 L 125.82,207.85 L 125.50,208.45 L 125.00,209.65 L 125.00,210.22 L 125.25,211.93 L 125.24,211.89 L 125.06,211.32 L 124.94,210.32 L 124.93,209.84 L 125.13,208.98 L 125.27,208.57 L 125.77,207.79 L 126.83,206.65 L 127.52,206.03 L 128.38,205.57 M 161.47,209.21 L 160.48,209.48 L 159.32,209.66 L 158.55,209.74 L 156.89,209.90 L 156.00,209.96 L 156.89,209.87 L 157.97,209.77 L 159.60,209.56 L 161.00,209.29 L 161.21,209.21 L 161.57,209.15 M 129.81,205.13 L 128.53,205.49 L 128.79,205.35 L 129.41,205.10 M 287.42,101.95 L 286.57,102.69 L 286.18,103.14 L 285.50,104.64 L 285.33,105.09 L 285.00,106.23 L 284.83,106.85 L 284.46,108.37 L 284.27,109.18 L 283.86,111.15 L 283.15,114.69 L 282.83,116.32 L 282.09,120.09 L 281.70,122.02 L 280.90,126.04 L 280.50,128.04 L 279.74,131.84 L 278.75,136.75 L 278.46,138.16 L 277.99,140.77 L 277.76,142.03 L 277.44,144.15 L 277.31,145.14 L 277.18,146.54 L 277.16,146.83 L 277.16,147.24 L 277.23,147.57 L 277.31,147.64 L 277.76,147.70 L 278.03,147.72 L 278.78,147.66 L 281.72,147.08 L 283.35,146.64 L 286.96,145.94 L 288.82,145.62 L 292.80,145.17 L 294.83,144.97 L 297.94,144.81 L 294.90,145.02 L 292.42,145.33 L 287.49,146.05 L 285.08,146.54 L 280.32,147.62 L 278.01,148.29 L 273.44,149.70 L 271.25,150.54 L 266.91,152.29 L 264.85,153.29 L 260.79,155.36 L 258.87,156.51 L 255.11,158.89 L 253.35,160.18 L 249.93,162.85 L 248.36,164.29 L 245.31,167.24 L 243.94,168.82 L 241.30,172.03 L 240.14,173.73 L 237.94,177.20 L 237.02,179.03 L 235.30,182.73 L 234.62,184.67 L 233.99,186.25 L 233.55,187.09 L 233.32,187.39 L 232.86,187.92 L 232.63,188.08 L 232.15,188.32 L 231.90,188.32 L 231.41,188.26 L 231.15,188.12 L 230.63,187.76 L 230.37,187.47 L 229.83,186.81 L 229.55,186.38 L 229.00,185.42 L 228.71,184.83 L 227.42,181.68 L 226.74,179.41 L 226.48,178.19 L 226.02,175.72 L 225.87,174.43 L 225.63,171.79 L 225.60,170.43 L 225.70,164.85 L 226.09,161.95 L 227.09,156.10 L 227.94,153.17 L 228.56,151.45 L 229.17,150.03 L 229.54,149.21 L 231.23,145.73 L 232.20,143.90 L 234.18,140.27 L 235.10,138.75 L 235.99,137.30 L 236.39,136.71 L 237.14,135.64 L 237.44,135.29 L 242.65,129.39 L 245.99,125.87 L 247.62,124.29 L 250.87,121.26 L 252.50,119.89 L 255.79,117.27 L 257.47,116.08 L 260.89,113.78 L 262.69,112.72 L 266.35,110.67 L 268.31,109.72 L 272.33,107.84 L 274.51,106.94 L 279.00,105.17 L 281.45,104.29 L 284.29,103.23 L 286.05,102.53 L 286.80,102.21 L 287.75,101.80 M 216.47,153.22 L 216.29,153.61 L 215.97,154.27 L 215.87,154.40 L 215.87,154.40 L 215.97,154.28 L 216.29,153.61 L 216.47,153.22 L 216.89,152.13 L 218.30,147.95 L 216.90,152.13 M 205.28,147.05 L 205.20,146.99 L 204.36,146.28 M 180.00,126.11 L 180.00,126.63 L 180.27,127.45 L 180.90,128.00 L 181.02,128.00 L 181.74,128.41 L 182.17,128.67 L 183.45,129.57 L 184.16,130.08 L 185.95,131.42 L 186.90,132.15 L 189.13,133.89 L 190.30,134.80 L 192.90,136.88 L 194.25,137.96 L 197.17,140.34 L 198.66,141.56 L 201.83,144.18 L 203.44,145.51 L 198.90,141.78 L 195.86,139.35 L 194.51,138.31 L 191.94,136.35 L 190.95,135.63 L 190.01,134.96 L 189.63,134.70 L 188.95,134.25 L 188.71,134.12 L 185.64,132.36 L 184.64,131.78 L 184.20,131.52 L 183.38,131.03 L 183.08,130.84 L 181.87,130.20 L 181.25,130.02 L 180.98,130.07 L 180.47,130.25 L 180.21,130.49 L 179.65,131.06 L 179.30,131.50 L 177.73,133.50 L 178.44,131.50 L 179.40,128.29 L 179.70,126.54 L 179.69,125.81 L 179.55,124.43 M 179.46,124.11 L 179.55,124.43 L 179.31,123.82 L 179.23,123.66 M 170.48,122.84 L 170.62,122.54 L 170.62,122.54 M 176.18,120.48 L 178.17,121.96 L 178.25,122.06 L 176.22,120.52 L 174.93,120.20 M 174.70,120.14 L 174.32,120.21 L 174.68,120.14 M 289.57,94.11 L 290.47,95.49 L 290.81,96.21 L 290.83,96.76 L 290.59,95.77 L 290.22,95.14 L 289.35,93.96 M 287.36,92.83 L 287.92,93.13 L 287.34,92.82 M 130.60,220.81 L 131.07,221.44 L 131.76,222.37 L 130.83,221.11 M 325.23,146.63 L 331.18,147.96 L 325.04,146.60 M 283.75,92.83 L 284.61,92.66 L 285.86,92.57 L 286.43,92.57 L 287.16,92.77 L 286.41,92.57 L 285.84,92.58 L 284.59,92.67 L 283.72,92.84 L 281.80,93.27 L 280.48,93.61 L 281.82,93.27 Z" fill="rgba(17,170,175,1)"/>
<path d="M 285.44,322.63 L 284.09,324.48 L 285.44,322.63 M 289.07,316.97 L 287.89,318.86 L 286.60,320.85 L 288.98,316.99 L 290.32,314.71 M 294.00,307.25 L 292.21,311.18 L 291.19,313.12 L 290.60,314.20 L 293.15,309.02 L 294.30,306.56 M 294.85,305.28 L 294.45,306.20 L 296.21,301.53 M 298.10,295.20 L 296.99,299.27 L 296.49,300.74 L 298.59,293.26 M 249.27,294.44 L 249.17,294.51 L 249.39,294.33 M 298.62,293.16 L 298.60,293.24 L 298.65,293.02 M 252.60,291.39 L 251.95,291.98 L 253.36,290.54 M 283.83,240.50 L 287.00,241.30 L 287.96,241.73 L 289.62,242.40 L 289.98,242.54 L 290.33,242.67 L 290.88,243.43 L 293.47,247.37 L 294.41,249.37 L 297.26,256.12 L 298.64,260.35 L 299.12,262.47 L 299.92,266.76 L 300.13,269.06 L 300.43,273.81 L 300.43,276.50 L 300.17,282.80 L 299.74,286.98 L 299.60,287.82 L 299.74,286.23 L 299.79,285.44 L 299.67,284.23 L 299.18,282.75 L 299.02,282.44 L 298.60,281.53 L 298.39,281.03 L 297.90,279.85 L 296.48,276.04 L 296.04,274.77 L 294.92,272.25 L 294.32,271.00 L 292.89,268.54 L 292.14,267.32 L 290.45,264.96 L 289.57,263.79 L 287.63,261.56 L 286.63,260.46 L 284.48,258.38 L 283.38,257.37 L 281.05,255.49 L 279.86,254.58 L 277.37,252.92 L 273.50,250.73 L 268.50,248.22 L 268.84,253.02 L 268.98,254.96 L 268.68,259.06 L 268.45,261.13 L 267.73,264.23 L 268.66,258.45 L 268.84,254.06 L 268.70,251.95 L 268.26,247.81 L 267.82,246.01 L 267.35,244.27 L 267.06,243.49 L 266.44,242.03 L 266.08,241.42 L 265.57,240.55 L 265.97,241.00 L 266.22,241.23 L 266.79,241.53 L 267.08,241.65 L 267.78,241.71 L 269.00,241.57 L 270.88,241.16 L 274.51,240.63 L 276.29,240.42 L 279.56,240.27 L 281.13,240.25 M 257.15,286.10 L 256.83,286.49 L 257.24,285.97 M 261.13,280.23 L 261.01,280.40 L 261.36,279.81 M 264.41,273.97 L 264.07,274.63 L 264.93,272.70 M 266.89,267.54 L 266.41,268.83 L 267.07,266.86 M 172.85,188.05 L 175.43,193.67 L 176.88,196.27 L 179.89,201.32 L 181.54,203.62 L 184.94,208.08 L 186.78,210.07 L 190.56,213.91 L 192.58,215.59 L 196.72,218.79 L 198.91,220.14 L 200.31,220.93 L 200.20,220.88 L 199.45,220.50 L 198.28,219.92 L 197.74,219.66 L 196.96,219.30 L 196.62,219.15 L 196.20,219.02 L 196.03,218.98 L 195.95,219.05 L 195.94,219.11 L 196.16,219.39 L 196.30,219.55 L 196.78,220.02 L 197.76,220.93 L 198.78,221.86 L 200.14,223.78 L 200.42,224.25 L 200.78,225.17 L 201.00,226.44 L 201.00,226.98 L 201.11,227.74 L 201.19,228.08 L 201.52,228.51 L 201.72,228.70 L 202.35,228.88 L 203.75,228.96 L 204.51,228.95 L 206.36,228.57 L 207.27,228.33 L 208.77,227.67 L 209.31,227.37 L 209.85,226.87 L 209.92,226.74 L 209.89,226.47 L 209.84,226.32 L 209.53,225.98 L 209.33,225.80 L 208.69,225.37 L 208.33,225.14 L 207.33,224.57 L 206.78,224.27 L 205.42,223.55 L 205.73,223.68 L 210.50,225.52 L 213.00,226.18 L 218.83,227.40 L 220.73,227.69 L 221.56,227.79 L 223.13,227.93 L 223.71,227.94 L 225.16,228.04 L 224.49,228.24 L 224.19,228.42 L 224.19,229.16 L 224.25,229.39 L 224.51,229.97 L 224.67,230.28 L 225.15,231.06 L 225.42,231.47 L 226.12,232.46 L 227.43,234.21 L 227.84,234.74 L 228.51,235.63 L 228.82,236.05 L 229.30,236.75 L 229.74,237.41 L 230.12,238.33 L 230.24,238.74 L 230.04,239.43 L 229.18,240.58 L 228.95,240.84 L 228.75,241.12 L 228.69,241.22 L 228.80,241.20 L 228.90,241.15 L 229.32,240.84 L 230.25,240.05 L 231.01,239.39 L 232.19,238.04 L 232.44,237.72 L 232.78,237.17 L 232.85,237.04 L 232.68,237.54 L 232.16,238.29 L 231.77,238.72 L 230.91,239.60 L 230.37,240.08 L 229.23,241.06 L 228.57,241.57 L 225.71,243.64 L 224.09,244.64 L 220.74,246.58 L 219.05,247.38 L 215.25,249.03 L 213.12,249.75 L 212.02,249.95 L 209.74,250.28 L 208.30,250.35 L 206.79,250.40 L 205.91,250.41 L 204.07,250.42 L 203.00,250.41 L 194.75,249.89 L 189.49,249.03 L 186.84,248.30 L 181.49,246.63 L 178.63,245.46 L 175.74,244.23 L 174.22,243.52 L 171.14,242.04 L 169.50,241.20 L 164.47,238.42 L 161.58,236.54 L 160.14,235.41 L 158.68,234.23 L 157.92,233.56 L 156.35,232.17 L 155.49,231.36 L 153.72,229.68 L 152.73,228.71 L 150.67,226.67 L 149.50,225.49 L 144.97,220.81 L 142.06,217.71 L 140.77,216.28 L 140.47,215.94 L 140.30,214.88 L 140.22,214.46 L 140.24,213.73 L 140.28,213.38 L 140.55,212.78 L 140.72,212.49 L 141.28,212.00 L 141.60,211.77 L 142.48,211.38 L 142.96,211.20 L 144.20,210.90 L 144.87,210.76 L 146.49,210.54 L 147.35,210.44 L 149.39,210.28 L 152.97,210.11 L 153.99,210.08 L 155.95,209.96 L 156.89,209.90 L 158.55,209.74 L 159.32,209.66 L 160.48,209.48 L 161.47,209.21 L 161.61,209.12 L 162.64,208.92 L 163.25,208.81 L 165.05,208.59 L 166.02,208.48 L 168.36,208.26 L 172.22,207.99 L 173.55,207.91 L 176.04,207.71 L 177.23,207.61 L 179.26,207.39 L 180.20,207.28 L 181.55,207.06 L 182.57,206.77 L 182.65,206.68 L 182.62,206.26 L 182.57,206.01 L 182.28,205.34 L 180.71,202.82 L 179.77,201.56 L 177.80,198.31 L 176.81,196.59 L 174.84,192.58 L 173.86,190.51 L 172.00,186.02 L 169.86,180.04 M 265.16,236.47 L 264.89,236.98 L 264.66,237.81 L 264.59,238.20 L 264.71,238.92 L 265.11,239.76 L 264.06,237.99 L 265.78,235.38 M 280.84,233.14 L 284.52,236.14 L 286.22,237.88 L 286.89,238.62 L 285.31,237.13 L 283.60,235.54 L 279.69,232.49 L 279.20,232.13 M 233.00,236.63 L 232.96,236.74 L 233.00,236.56 M 227.17,228.36 L 227.64,228.62 L 228.54,229.25 L 228.99,229.76 L 229.90,230.91 L 230.46,231.73 L 230.56,231.88 L 230.20,231.41 L 229.43,230.49 L 227.87,229.01 L 227.49,228.70 L 226.82,228.27 M 271.18,228.05 L 272.00,228.20 L 272.63,228.47 L 272.93,228.60 L 272.49,228.42 L 271.89,228.18 L 271.11,228.06 L 270.78,228.06 L 270.83,228.03 M 270.33,228.37 L 270.34,228.36 L 270.53,228.23 M 125.68,213.09 L 126.03,213.79 L 126.83,215.26 L 127.37,216.11 L 128.54,217.90 L 129.27,218.94 L 130.60,220.81 L 129.88,219.82 L 129.32,219.05 L 128.38,217.69 L 127.93,217.05 L 127.20,215.93 L 126.85,215.39 L 126.31,214.45 L 125.81,213.55 L 125.28,212.13 L 125.25,211.93 M 134.26,208.30 L 135.14,209.30 L 136.99,211.71 L 137.81,212.93 L 137.36,212.40 L 136.46,211.32 L 136.10,210.87 L 135.44,210.02 L 135.22,209.70 L 133.98,208.02 L 133.75,207.75 M 132.57,206.48 L 132.65,206.57 L 132.00,206.00 M 128.37,205.57 L 128.49,205.50 L 128.55,205.48 M 130.96,205.24 L 131.23,205.39 L 131.38,205.51 L 130.82,205.30 L 129.83,205.13 L 130.28,205.00 L 130.46,205.00 M 168.74,127.52 L 168.49,128.48 L 167.57,132.53 L 167.22,134.81 L 166.61,139.53 L 166.42,142.06 L 166.11,147.21 L 166.08,149.85 L 166.09,155.18 L 166.21,157.82 L 166.30,159.25 L 166.21,157.84 L 166.09,155.20 L 166.08,149.87 L 166.11,147.23 L 166.41,142.08 L 166.60,139.55 L 167.22,134.83 L 167.56,132.54 L 168.49,128.49 L 168.73,127.53 L 169.29,125.78 L 170.21,123.44 L 169.29,125.78 Z" fill="rgba(34,235,179,1)"/>
<path d="M 246.40,242.68 L 248.23,242.78 L 249.43,242.90 L 251.28,243.10 L 252.29,243.23 L 252.71,243.31 L 254.14,243.62 L 254.59,243.85 L 255.34,244.40 L 255.57,244.81 L 255.97,245.76 L 256.15,246.45 L 256.54,248.00 L 256.64,248.55 L 256.73,249.05 L 256.74,249.20 L 256.75,249.45 L 256.72,249.46 L 255.99,249.52 L 255.28,249.49 L 254.83,249.45 L 252.83,249.20 L 251.64,249.00 L 249.18,248.53 L 247.97,248.24 L 245.60,247.65 L 244.64,247.34 L 243.10,246.83 L 242.27,246.55 L 241.95,246.42 L 240.92,245.96 L 240.72,245.75 L 240.53,245.31 L 240.70,245.04 L 241.20,244.45 L 241.64,244.04 L 242.82,243.20 L 243.72,242.85 L 244.30,242.76 L 245.56,242.65 M 185.22,208.31 L 188.83,212.12 L 190.78,213.85 L 194.76,217.16 L 196.86,218.60 L 201.12,221.34 L 203.33,222.48 L 206.42,223.95 L 205.73,223.68 L 203.37,222.67 L 198.91,220.14 L 196.72,218.79 L 192.58,215.59 L 190.56,213.91 L 186.78,210.07 L 184.94,208.08 L 184.46,207.45 M 181.87,130.20 L 183.08,130.84 L 183.38,131.03 L 184.20,131.52 L 184.64,131.78 L 185.64,132.36 L 188.71,134.12 L 188.95,134.25 L 189.63,134.70 L 190.01,134.96 L 190.95,135.63 L 191.94,136.35 L 194.51,138.31 L 195.86,139.35 L 198.90,141.78 L 203.63,145.67 L 205.20,146.99 L 208.14,149.34 L 209.56,150.44 L 211.96,152.20 L 212.51,152.60 L 213.48,153.25 L 213.93,153.55 L 214.67,153.98 L 215.00,154.18 L 215.48,154.38 L 215.87,154.40 L 215.97,154.27 L 216.29,153.61 L 216.45,153.26 L 216.41,153.42 L 215.03,159.40 L 214.67,162.37 L 214.19,168.29 L 214.28,171.18 L 214.67,176.89 L 215.21,179.63 L 216.49,185.01 L 217.46,187.52 L 219.62,192.43 L 221.03,194.66 L 222.49,196.85 L 223.31,197.88 L 224.99,199.89 L 225.91,200.83 L 227.63,202.60 L 228.57,203.59 L 228.95,204.01 L 229.64,204.80 L 229.90,205.14 L 230.36,205.76 L 230.52,206.03 L 230.93,206.98 L 230.89,207.37 L 230.66,208.12 L 230.36,208.52 L 229.23,210.79 L 228.57,212.76 L 228.40,213.67 L 227.96,215.49 L 227.59,216.26 L 227.29,216.49 L 226.61,216.84 L 226.08,216.91 L 224.88,217.00 L 224.01,217.00 L 221.01,216.59 L 220.16,216.31 L 219.83,216.14 L 219.24,215.79 L 219.08,215.60 L 217.60,214.44 L 216.28,213.78 L 215.66,213.63 L 214.31,213.15 L 213.29,212.66 L 212.73,212.34 L 210.34,210.87 L 208.99,209.89 L 206.20,207.77 L 204.72,206.52 L 201.72,203.93 L 200.21,202.51 L 197.18,199.62 L 195.73,198.12 L 192.87,195.10 L 191.56,193.60 L 189.06,190.64 L 188.00,189.23 L 186.03,186.49 L 185.31,185.27 L 183.28,182.25 L 182.69,181.55 L 182.45,181.34 L 182.03,181.00 L 181.90,181.00 L 181.31,180.78 L 181.12,180.46 L 181.16,180.25 L 181.13,179.72 L 181.01,179.18 L 180.92,178.84 L 180.43,177.33 L 180.10,176.51 L 179.29,173.83 L 178.80,171.52 L 178.59,170.16 L 178.20,167.31 L 178.04,165.73 L 177.74,162.49 L 177.63,160.78 L 177.31,153.74 L 177.33,150.24 L 177.38,146.77 L 177.46,145.12 L 177.65,141.88 L 177.80,140.40 L 178.27,135.97 L 178.60,133.17 L 178.72,132.24 L 179.30,131.50 L 179.65,131.06 L 180.21,130.49 L 180.47,130.25 L 180.98,130.07 L 181.25,130.02 M 168.78,176.72 L 169.25,178.33 L 168.86,177.12 L 168.75,176.60 M 167.49,170.60 L 167.71,171.80 L 167.46,170.51 L 167.07,167.54 M 166.18,146.72 L 166.15,149.07 L 166.16,153.86 L 166.25,156.40 L 166.54,162.13 L 166.84,165.67 L 167.02,167.18 L 166.81,165.58 L 166.53,163.07 L 166.21,157.82 L 166.09,155.18 L 166.08,149.85 L 166.11,147.21 L 166.37,142.83 M 223.91,135.89 L 219.60,144.30 L 219.81,143.77 L 220.39,142.37 L 221.80,139.55 L 222.55,138.14 L 224.25,135.31 L 224.55,134.83 M 228.76,128.87 L 226.79,131.55 L 227.11,131.09 L 229.15,128.29 L 229.60,127.78 M 179.55,124.43 L 179.69,125.81 L 179.70,126.54 L 179.40,128.29 L 179.15,129.11 L 179.20,128.80 L 179.32,128.00 L 179.38,127.69 L 179.48,127.13 L 179.53,126.96 L 179.49,124.29 M 175.01,120.22 L 174.26,120.22 L 173.84,120.33 L 171.97,121.42 L 170.84,122.73 L 170.33,123.66 L 169.36,125.69 L 168.94,126.96 L 168.51,128.42 L 168.74,127.52 L 169.29,125.78 L 170.21,123.44 L 170.63,122.53 L 171.83,121.27 L 172.48,120.74 L 173.96,120.27 L 174.71,120.14 M 244.27,113.05 L 244.83,112.55 L 246.54,111.28 M 252.17,107.11 L 254.06,105.76 L 255.98,104.61 M 264.32,99.86 L 260.27,102.04 L 260.55,101.87 L 263.83,100.03 L 265.48,99.28 M 269.37,97.51 L 270.49,97.00 L 272.16,96.30 L 275.50,95.10 L 280.48,93.61 L 272.44,96.22 Z" fill="rgba(22,200,213,1)"/>
<path d="M 287.34,92.82 L 288.73,93.56 L 289.35,93.96 L 290.22,95.14 L 290.59,95.77 L 290.93,97.16 L 291.03,97.86 L 290.79,99.18 L 289.75,100.76 L 289.58,100.90 L 288.71,101.35 L 288.20,101.60 L 286.80,102.21 L 286.05,102.53 L 284.29,103.23 L 281.45,104.29 L 279.00,105.17 L 274.51,106.94 L 272.33,107.84 L 268.31,109.72 L 266.35,110.67 L 262.69,112.72 L 260.89,113.78 L 257.47,116.08 L 255.79,117.27 L 252.50,119.89 L 250.87,121.26 L 247.62,124.29 L 245.99,125.87 L 242.65,129.39 L 237.44,135.29 L 237.14,135.64 L 236.39,136.71 L 235.99,137.30 L 235.10,138.75 L 234.18,140.27 L 232.20,143.90 L 231.23,145.73 L 229.54,149.21 L 229.17,150.03 L 228.56,151.45 L 227.94,153.17 L 227.09,156.10 L 226.09,161.95 L 225.70,164.85 L 225.60,170.43 L 225.63,171.79 L 225.87,174.43 L 226.02,175.72 L 226.48,178.19 L 226.74,179.41 L 227.42,181.68 L 228.71,184.83 L 229.00,185.42 L 229.55,186.38 L 229.83,186.81 L 230.37,187.47 L 230.63,187.76 L 231.15,188.12 L 231.41,188.26 L 231.90,188.32 L 232.15,188.32 L 232.63,188.08 L 232.86,187.92 L 233.32,187.39 L 233.55,187.09 L 233.99,186.25 L 234.62,184.67 L 235.30,182.73 L 237.02,179.03 L 237.94,177.20 L 240.14,173.73 L 241.30,172.03 L 243.94,168.82 L 245.31,167.24 L 248.36,164.29 L 249.93,162.85 L 253.35,160.18 L 255.11,158.89 L 258.87,156.51 L 260.79,155.36 L 264.85,153.29 L 266.91,152.29 L 271.25,150.54 L 273.44,149.70 L 278.01,148.29 L 280.32,147.62 L 285.08,146.54 L 287.49,146.05 L 292.42,145.33 L 294.90,145.02 L 299.96,144.68 L 302.50,144.55 L 307.66,144.59 L 310.25,144.66 L 315.47,145.10 L 318.08,145.37 L 323.32,146.22 L 331.18,147.96 L 332.47,148.30 L 335.45,149.28 L 336.99,149.81 L 340.31,151.10 L 343.67,152.44 L 350.49,155.58 L 352.13,156.37 L 355.16,157.94 L 356.62,158.71 L 359.13,160.17 L 360.30,160.87 L 362.08,162.11 L 362.46,162.40 L 363.06,162.93 L 363.67,163.61 L 364.11,164.30 L 364.61,165.63 L 364.80,166.28 L 364.82,167.51 L 364.79,168.11 L 364.41,169.16 L 364.18,169.67 L 363.47,170.49 L 363.08,170.87 L 362.11,171.39 L 361.60,171.61 L 360.42,171.78 L 359.82,171.80 L 358.51,171.54 L 356.48,170.58 L 355.82,170.14 L 354.40,169.47 L 352.79,169.01 L 352.68,169.01 L 352.10,169.27 L 351.76,169.44 L 350.75,170.01 L 350.20,170.33 L 348.83,171.16 L 348.11,171.61 L 346.44,172.66 L 344.70,173.75 L 340.62,176.42 L 338.51,177.80 L 334.07,180.77 L 331.86,182.26 L 327.59,185.19 L 325.52,186.61 L 321.94,189.15 L 321.11,189.74 L 319.67,190.79 L 319.00,191.29 L 317.91,192.12 L 317.42,192.50 L 316.75,193.07 L 316.28,193.58 L 316.24,193.73 L 316.53,194.20 L 316.73,194.47 L 317.45,195.11 L 317.85,195.45 L 318.90,196.18 L 320.72,197.29 L 322.14,198.07 L 325.19,200.08 L 326.73,201.15 L 329.94,203.65 L 331.56,204.96 L 334.83,207.83 L 336.46,209.31 L 339.67,212.45 L 341.26,214.05 L 344.30,217.34 L 345.79,218.99 L 348.54,222.31 L 349.87,223.97 L 352.22,227.21 L 355.18,231.86 L 356.06,233.41 L 357.96,236.58 L 358.41,237.31 L 359.21,238.58 L 360.15,240.00 L 360.46,240.44 L 361.25,242.04 L 361.66,242.94 L 362.59,245.27 L 363.06,246.50 L 364.05,249.30 L 364.54,250.74 L 365.51,253.76 L 365.99,255.27 L 366.86,258.26 L 367.27,259.72 L 367.97,262.42 L 368.29,263.71 L 368.72,265.87 L 369.00,268.21 L 369.00,269.28 L 368.53,270.98 L 368.23,271.76 L 367.21,272.86 L 366.64,273.33 L 365.14,273.75 L 362.44,273.58 L 362.00,273.46 L 361.27,273.08 L 360.93,272.85 L 360.35,272.17 L 360.08,271.79 L 359.61,270.76 L 358.97,268.74 L 358.30,266.18 L 356.80,261.24 L 356.02,258.81 L 354.32,254.15 L 353.44,251.86 L 351.53,247.48 L 350.55,245.32 L 348.44,241.23 L 347.36,239.22 L 345.07,235.43 L 343.89,233.57 L 341.41,230.09 L 340.14,228.39 L 337.47,225.22 L 333.27,220.84 L 332.33,219.94 L 330.50,218.37 L 329.58,217.62 L 327.78,216.34 L 326.87,215.73 L 325.03,214.71 L 324.09,214.24 L 322.19,213.48 L 323.92,214.00 L 325.50,214.58 L 325.94,214.57 L 325.75,214.23 L 325.45,213.92 L 324.73,213.22 L 324.21,212.78 L 323.09,211.83 L 322.42,211.30 L 319.51,209.06 L 317.95,207.96 L 316.39,206.88 L 315.65,206.40 L 314.21,205.48 L 313.57,205.11 L 307.96,202.29 L 304.18,200.76 L 302.28,200.18 L 298.49,199.14 L 296.60,198.80 L 292.85,198.25 L 291.00,198.16 L 287.34,198.09 L 285.56,198.24 L 282.03,198.67 L 280.34,199.07 L 277.01,199.99 L 275.43,200.64 L 272.34,202.06 L 270.90,202.95 L 266.29,205.82 L 268.90,211.33 L 269.72,213.04 L 270.22,213.99 L 270.45,214.38 L 271.36,215.75 L 271.87,216.22 L 272.96,217.04 L 273.70,217.36 L 275.34,217.97 L 276.50,218.31 L 277.95,218.73 L 278.58,218.90 L 279.76,219.22 L 280.25,219.35 L 281.99,219.75 L 282.54,219.81 L 283.46,219.84 L 283.69,219.73 L 284.00,219.42 L 284.00,219.15 L 284.03,219.12 L 284.17,219.34 L 284.28,219.49 L 284.66,219.96 L 285.08,220.47 L 286.45,221.99 L 287.21,222.82 L 289.11,224.81 L 292.36,228.12 L 294.02,229.79 L 296.97,233.16 L 298.39,234.87 L 300.88,238.35 L 302.07,240.11 L 304.10,243.75 L 305.06,245.59 L 306.67,249.45 L 307.42,251.40 L 308.61,255.51 L 309.16,257.60 L 309.96,262.03 L 310.31,264.28 L 310.74,269.07 L 310.98,276.71 L 310.98,279.27 L 310.67,284.28 L 310.47,286.77 L 309.77,291.64 L 309.36,294.06 L 308.24,298.82 L 307.63,301.20 L 306.09,305.88 L 305.26,308.22 L 303.29,312.86 L 302.24,315.17 L 299.82,319.79 L 298.56,322.09 L 295.69,326.72 L 290.86,333.69 L 290.06,334.77 L 288.78,336.34 L 288.17,337.04 L 287.13,337.96 L 286.62,338.36 L 285.63,338.78 L 284.00,339.00 L 283.07,339.00 L 281.56,338.50 L 280.89,338.17 L 280.04,337.07 L 279.58,336.22 L 279.17,334.67 L 279.06,333.89 L 279.43,332.18 L 279.58,331.72 L 280.04,330.70 L 280.30,330.18 L 281.00,328.98 L 281.39,328.36 L 282.35,326.93 L 284.09,324.48 L 285.44,322.63 L 287.89,318.86 L 289.07,316.97 L 291.19,313.12 L 292.21,311.18 L 294.00,307.25 L 294.85,305.28 L 296.31,301.28 L 296.99,299.27 L 298.10,295.20 L 298.62,293.16 L 299.40,289.04 L 299.74,286.98 L 300.17,282.80 L 300.43,276.50 L 300.43,273.81 L 300.13,269.06 L 299.92,266.76 L 299.12,262.47 L 298.64,260.35 L 297.26,256.12 L 294.41,249.37 L 293.47,247.37 L 290.88,243.43 L 289.49,241.49 L 286.22,237.88 L 284.52,236.14 L 280.84,233.14 L 275.16,229.64 L 274.09,229.12 L 272.63,228.47 L 272.00,228.20 L 271.18,228.05 L 270.83,228.03 L 270.34,228.36 L 269.62,229.37 L 269.46,229.63 L 269.01,230.37 L 268.76,230.76 L 268.18,231.69 L 266.28,234.62 L 264.06,237.99 L 266.08,241.42 L 266.44,242.03 L 267.06,243.49 L 267.35,244.27 L 267.82,246.01 L 268.26,247.81 L 268.70,251.95 L 268.84,254.06 L 268.66,258.45 L 267.65,264.72 L 267.21,266.44 L 266.07,269.83 L 265.46,271.51 L 263.99,274.82 L 263.22,276.45 L 261.47,279.62 L 260.56,281.19 L 258.55,284.17 L 257.52,285.63 L 255.29,288.38 L 254.16,289.73 L 251.75,292.19 L 250.52,293.39 L 247.97,295.52 L 244.00,298.29 L 241.72,299.68 L 236.50,302.46 L 233.81,303.83 L 228.18,306.38 L 225.36,307.61 L 219.85,309.71 L 218.51,310.19 L 215.93,311.04 L 212.30,312.09 L 210.56,312.55 L 206.48,313.29 L 204.37,313.64 L 199.77,314.16 L 195.10,314.63 L 185.50,314.91 L 183.19,314.92 L 178.87,314.78 L 176.79,314.68 L 173.18,314.31 L 172.34,314.21 L 170.84,313.95 L 170.12,313.81 L 168.90,313.50 L 168.33,313.34 L 167.44,312.97 L 166.49,312.35 L 166.08,311.94 L 165.54,311.00 L 165.31,310.52 L 165.10,309.50 L 165.04,308.99 L 165.15,307.95 L 165.24,307.43 L 165.62,306.44 L 165.84,305.96 L 166.47,305.09 L 166.81,304.68 L 167.65,304.00 L 168.10,303.69 L 169.12,303.27 L 170.82,303.00 L 171.17,303.00 L 171.90,302.76 L 172.26,302.61 L 173.01,302.07 L 173.38,301.76 L 174.13,300.92 L 175.24,299.34 L 175.40,299.09 L 175.88,298.33 L 176.15,297.91 L 176.84,296.85 L 177.20,296.29 L 177.60,295.68 L 177.27,296.24 L 176.07,298.27 L 175.60,299.12 L 174.74,300.72 L 174.45,301.34 L 173.96,302.46 L 173.86,302.83 L 173.75,303.44 L 173.85,303.54 L 174.04,303.63 L 174.28,303.66 L 174.84,303.73 L 175.25,303.76 L 176.14,303.81 L 176.70,303.83 L 177.88,303.86 L 178.57,303.86 L 181.55,303.87 L 183.32,303.84 L 187.01,303.77 L 189.00,303.70 L 194.76,303.41 L 198.34,303.15 L 200.01,302.98 L 203.29,302.60 L 204.83,302.37 L 207.87,301.87 L 209.31,301.57 L 214.92,300.24 L 217.57,299.35 L 222.82,297.40 L 225.46,296.16 L 231.98,292.71 L 236.04,290.15 L 237.92,288.76 L 241.57,285.90 L 243.22,284.38 L 246.40,281.27 L 247.80,279.65 L 250.48,276.35 L 251.61,274.65 L 253.73,271.21 L 254.57,269.46 L 256.09,265.94 L 256.61,264.16 L 257.49,260.61 L 257.68,258.83 L 257.86,256.34 L 257.87,254.89 L 257.82,254.26 L 257.69,253.07 L 257.57,252.56 L 257.29,251.61 L 257.09,251.22 L 256.64,250.50 L 256.36,250.21 L 255.74,249.70 L 255.37,249.52 L 255.26,249.49 L 255.28,249.49 L 255.99,249.52 L 256.72,249.46 L 256.75,249.45 L 256.74,249.20 L 256.73,249.05 L 256.64,248.55 L 256.54,248.00 L 256.15,246.45 L 255.97,245.76 L 255.57,244.81 L 255.34,244.40 L 254.59,243.85 L 254.14,243.62 L 252.71,243.31 L 252.29,243.23 L 251.28,243.10 L 249.43,242.90 L 248.23,242.78 L 246.40,242.68 L 245.56,242.65 L 244.30,242.76 L 243.72,242.85 L 242.82,243.20 L 241.64,244.04 L 241.20,244.45 L 240.70,245.04 L 240.53,245.31 L 240.72,245.75 L 240.92,245.96 L 241.95,246.42 L 242.27,246.55 L 243.10,246.83 L 244.64,247.34 L 245.60,247.65 L 247.97,248.24 L 249.18,248.53 L 251.10,248.89 L 250.96,248.88 L 249.68,248.70 L 248.99,248.56 L 246.18,247.92 L 245.02,247.51 L 242.08,246.66 L 240.64,246.49 L 240.19,246.60 L 239.44,246.95 L 239.32,247.32 L 239.24,248.20 L 239.44,248.83 L 239.38,249.64 L 239.09,250.25 L 238.83,250.59 L 237.53,251.99 L 236.56,252.69 L 234.46,254.09 L 233.25,254.69 L 230.77,255.78 L 229.53,256.11 L 227.91,256.57 L 226.54,257.00 L 225.76,257.25 L 222.49,258.34 L 220.97,258.89 L 218.12,259.72 L 215.91,260.21 L 214.71,260.41 L 209.72,261.10 L 207.29,261.19 L 199.15,261.50 L 198.86,262.10 L 199.00,261.55 L 199.00,261.47 L 198.74,261.33 L 198.58,261.27 L 198.05,261.16 L 195.75,260.98 L 194.92,260.98 L 193.07,260.83 L 192.12,260.73 L 190.06,260.41 L 187.96,260.05 L 183.35,258.86 L 181.00,258.20 L 176.16,256.49 L 169.05,253.45 L 167.13,252.53 L 163.48,250.57 L 161.68,249.58 L 158.24,247.47 L 156.54,246.39 L 153.29,244.10 L 151.69,242.93 L 148.60,240.45 L 147.08,239.18 L 144.14,236.48 L 142.69,235.10 L 139.87,232.16 L 138.48,230.66 L 135.76,227.47 L 131.76,222.37 L 130.83,221.11 L 129.27,218.94 L 128.54,217.90 L 127.37,216.11 L 126.83,215.26 L 126.03,213.79 L 125.68,213.09 L 125.24,211.89 L 125.06,211.32 L 124.94,210.32 L 124.93,209.84 L 125.13,208.98 L 125.27,208.57 L 125.77,207.79 L 126.83,206.65 L 127.56,205.99 L 128.89,205.30 L 129.54,205.07 L 130.82,205.30 L 131.46,205.54 L 132.85,206.74 L 133.21,207.10 L 133.98,208.02 L 135.22,209.70 L 135.44,210.02 L 136.10,210.87 L 136.46,211.32 L 137.36,212.40 L 138.31,213.53 L 140.77,216.28 L 142.06,217.71 L 144.97,220.81 L 149.50,225.49 L 150.67,226.67 L 152.73,228.71 L 153.72,229.68 L 155.49,231.36 L 156.35,232.17 L 157.92,233.56 L 158.68,234.23 L 160.14,235.41 L 161.58,236.54 L 164.47,238.42 L 169.50,241.20 L 171.14,242.04 L 174.22,243.52 L 175.74,244.23 L 178.63,245.46 L 181.49,246.63 L 186.84,248.30 L 189.49,249.03 L 194.75,249.89 L 203.00,250.41 L 204.07,250.42 L 205.91,250.41 L 206.79,250.40 L 208.30,250.35 L 209.74,250.28 L 212.02,249.95 L 213.12,249.75 L 215.25,249.03 L 219.05,247.38 L 220.74,246.58 L 224.09,244.64 L 225.71,243.64 L 228.57,241.57 L 229.23,241.06 L 230.37,240.08 L 230.91,239.60 L 231.77,238.72 L 232.16,238.29 L 232.68,237.54 L 233.00,236.63 L 233.00,236.47 L 232.80,235.88 L 232.67,235.55 L 232.26,234.71 L 230.46,231.73 L 229.90,230.91 L 228.99,229.76 L 228.54,229.25 L 227.64,228.62 L 227.17,228.36 L 226.02,228.09 L 223.71,227.94 L 221.46,227.91 L 216.89,227.24 L 214.60,226.81 L 210.05,225.39 L 207.78,224.59 L 203.33,222.48 L 201.12,221.34 L 196.86,218.60 L 194.76,217.16 L 190.78,213.85 L 188.83,212.12 L 185.22,208.31 L 183.47,206.34 L 180.32,202.08 L 176.21,195.25 L 175.33,193.53 L 173.77,190.30 L 173.03,188.71 L 171.74,185.66 L 170.52,182.63 L 168.78,176.72 L 168.40,175.22 L 167.78,172.15 L 167.49,170.60 L 167.04,167.33 L 166.84,165.67 L 166.54,162.13 L 166.25,156.40 L 166.16,153.86 L 166.15,149.07 L 166.18,146.72 L 166.39,142.37 L 166.53,140.26 L 166.95,136.40 L 167.19,134.54 L 167.81,131.23 L 168.14,129.66 L 168.94,126.96 L 169.36,125.69 L 170.33,123.66 L 170.84,122.73 L 171.97,121.42 L 173.84,120.33 L 174.26,120.22 L 175.08,120.22 L 175.49,120.25 L 176.27,120.49 L 177.03,120.78 L 178.28,121.94 L 178.84,122.60 L 179.49,124.25 L 179.53,126.96 L 179.48,127.13 L 179.38,127.69 L 179.32,128.00 L 179.20,128.80 L 179.07,129.66 L 178.76,131.96 L 178.60,133.17 L 178.27,135.97 L 177.80,140.40 L 177.65,141.88 L 177.46,145.12 L 177.38,146.77 L 177.33,150.24 L 177.31,153.74 L 177.63,160.78 L 177.74,162.49 L 178.04,165.73 L 178.20,167.31 L 178.59,170.16 L 178.80,171.52 L 179.29,173.83 L 180.10,176.51 L 180.43,177.33 L 180.92,178.84 L 181.01,179.18 L 181.13,179.72 L 181.16,180.25 L 181.12,180.46 L 181.31,180.78 L 181.90,181.00 L 182.03,181.00 L 182.45,181.34 L 182.69,181.55 L 183.28,182.25 L 183.45,182.50 L 183.26,182.30 L 182.76,181.80 L 182.59,181.71 L 182.28,181.65 L 182.23,181.80 L 182.29,182.96 L 182.63,184.08 L 182.93,184.78 L 183.62,186.26 L 184.07,187.10 L 185.04,188.85 L 185.61,189.79 L 188.11,193.69 L 189.55,195.66 L 192.53,199.55 L 194.05,201.23 L 196.34,203.70 L 197.79,205.17 L 198.48,205.82 L 201.19,208.24 L 202.55,209.22 L 205.29,211.05 L 206.80,211.84 L 209.96,213.35 L 211.81,214.07 L 214.03,214.91 L 214.93,215.20 L 216.57,215.70 L 217.18,215.82 L 218.24,215.98 L 218.54,215.93 L 219.00,215.74 L 219.00,215.53 L 219.08,215.60 L 219.24,215.79 L 219.83,216.14 L 220.16,216.31 L 221.01,216.59 L 224.01,217.00 L 224.88,217.00 L 226.08,216.91 L 226.61,216.84 L 227.29,216.49 L 227.59,216.26 L 227.96,215.49 L 228.40,213.67 L 228.57,212.76 L 229.23,210.79 L 230.36,208.52 L 230.66,208.12 L 230.89,207.37 L 230.93,206.98 L 230.52,206.03 L 230.36,205.76 L 229.90,205.14 L 229.64,204.80 L 228.95,204.01 L 228.57,203.59 L 227.63,202.60 L 225.91,200.83 L 224.99,199.89 L 223.31,197.88 L 222.49,196.85 L 221.03,194.66 L 219.62,192.43 L 217.46,187.52 L 216.49,185.01 L 215.21,179.63 L 214.67,176.89 L 214.28,171.18 L 214.19,168.29 L 214.67,162.37 L 215.03,159.40 L 216.41,153.42 L 217.21,150.44 L 219.49,144.53 L 223.91,135.89 L 225.34,133.53 L 228.76,128.87 L 230.55,126.57 L 234.60,122.08 L 236.69,119.87 L 241.25,115.65 L 243.59,113.58 L 248.55,109.71 L 251.06,107.83 L 256.30,104.40 L 258.94,102.76 L 264.32,99.86 L 267.02,98.49 L 272.44,96.22 L 280.48,93.61 L 281.80,93.27 L 283.72,92.84 L 284.59,92.67 L 285.84,92.58 L 286.41,92.57 M 192.45,273.21 L 192.44,273.22 L 192.50,273.13 M 196.99,265.92 L 196.54,266.71 L 196.25,267.19 L 194.97,269.29 L 194.16,270.56 L 192.93,272.47 L 194.22,270.44 L 194.86,269.41 L 195.95,267.63 L 196.46,266.78 L 197.29,265.34 L 197.32,265.30 M 249.64,208.59 L 246.60,208.94 L 244.75,209.45 L 243.92,209.82 L 242.33,210.65 L 241.65,211.17 L 240.35,212.29 L 239.83,212.94 L 238.86,214.30 L 238.51,215.06 L 237.89,216.63 L 237.73,217.48 L 237.50,219.22 L 237.54,220.14 L 237.74,222.02 L 238.00,222.99 L 239.07,225.97 L 239.98,227.60 L 240.56,228.27 L 241.83,229.55 L 242.64,230.09 L 244.38,231.13 L 245.46,231.60 L 247.25,232.35 L 247.96,232.56 L 249.29,232.88 L 249.89,232.87 L 251.08,232.75 L 251.73,232.53 L 253.10,231.97 L 253.96,231.52 L 257.01,229.46 L 258.62,227.83 L 259.21,226.89 L 260.25,224.94 L 260.55,223.84 L 261.00,221.58 L 261.00,220.35 L 260.86,218.00 L 260.59,216.69 L 260.34,216.09 L 259.75,214.91 L 259.30,214.29 L 258.28,213.00 L 257.58,212.24 L 255.62,210.26 L 254.52,209.40 L 253.97,209.15 L 252.83,208.74 L 252.14,208.66 L 250.64,208.57 M 287.32,216.88 L 287.33,216.87 L 287.34,216.87 M 288.69,216.18 L 289.84,215.61 L 290.10,215.48 M 215.66,213.63 L 216.28,213.78 L 217.60,214.44 L 218.00,214.76 L 217.97,214.74 L 216.45,213.96 L 215.64,213.62 M 310.38,211.29 L 311.84,211.41 L 314.79,211.74 L 316.28,212.02 L 316.97,212.16 L 315.63,211.96 L 314.43,211.81 L 311.81,211.63 L 307.50,211.55 L 306.50,211.56 L 304.76,211.59 L 303.93,211.61 L 302.48,211.68 L 302.01,211.71 L 303.23,211.56 L 306.06,211.28 L 307.49,211.26 M 188.00,189.23 L 189.06,190.64 L 191.56,193.60 L 192.87,195.10 L 195.73,198.12 L 197.18,199.62 L 200.21,202.51 L 201.72,203.93 L 204.72,206.52 L 205.14,206.87 L 205.09,206.84 L 203.65,205.62 L 200.75,203.11 L 199.31,201.76 L 196.46,199.01 L 195.10,197.59 L 192.44,194.73 L 191.22,193.30 L 188.87,190.45 L 187.86,189.08 L 186.69,187.41 M 304.28,155.27 L 297.47,155.48 L 294.15,155.84 L 287.58,156.75 L 284.46,157.47 L 278.33,159.09 L 275.49,160.16 L 269.97,162.48 L 267.50,163.91 L 262.77,166.99 L 259.76,169.28 L 258.36,170.52 L 255.62,173.06 L 254.37,174.39 L 251.95,177.09 L 250.89,178.47 L 248.86,181.24 L 248.02,182.63 L 246.44,185.40 L 245.85,186.76 L 244.79,189.44 L 244.48,190.73 L 244.00,193.24 L 244.00,194.41 L 244.00,198.50 L 251.35,198.50 L 253.77,198.49 L 255.10,198.46 L 255.66,198.42 L 257.64,198.20 L 258.45,197.91 L 260.00,197.19 L 260.87,196.54 L 261.78,195.85 L 262.31,195.41 L 263.43,194.47 L 264.10,193.91 L 266.71,191.72 L 268.21,190.53 L 268.89,190.05 L 270.19,189.17 L 270.82,188.83 L 272.06,188.21 L 272.71,187.98 L 274.02,187.58 L 274.75,187.45 L 276.26,187.22 L 277.14,187.15 L 278.99,187.05 L 280.08,187.03 L 282.40,187.00 L 283.77,187.00 L 291.62,187.41 L 296.90,188.06 L 299.40,188.55 L 304.28,189.62 L 306.41,190.29 L 308.49,190.97 L 309.42,191.34 L 311.22,192.09 L 311.99,192.49 L 313.82,193.34 L 314.73,193.57 L 315.17,193.49 L 316.06,193.18 L 316.64,192.80 L 317.89,191.89 L 318.79,191.19 L 319.85,190.40 L 320.83,189.69 L 321.44,189.26 L 322.74,188.35 L 323.49,187.83 L 325.05,186.76 L 325.91,186.17 L 329.56,183.69 L 331.58,182.34 L 335.71,179.58 L 337.82,178.19 L 353.14,168.11 L 343.82,163.63 L 334.63,159.95 L 328.15,158.02 L 324.79,157.33 L 318.02,156.11 L 314.59,155.77 L 307.70,155.26 M 231.93,188.43 L 231.11,188.51 L 230.78,188.66 L 230.72,188.80 L 230.66,189.11 L 230.73,189.34 L 230.93,189.86 L 231.11,190.21 L 231.66,191.15 L 231.89,191.48 L 232.32,192.00 L 232.42,192.00 L 232.80,191.48 L 233.11,190.71 L 233.23,190.21 L 233.15,188.86 L 232.53,188.43 Z" fill="rgba(41,58,84,1)"/>
<path d="M 239.94,247.39 L 239.85,248.54 L 239.83,249.33 L 239.80,251.05 L 239.80,252.06 L 239.83,254.17 L 239.87,255.29 L 239.83,260.65 L 239.56,264.07 L 239.30,265.70 L 238.70,268.93 L 238.27,270.49 L 237.33,273.56 L 236.73,275.06 L 235.44,278.01 L 234.65,279.45 L 232.99,282.31 L 232.01,283.72 L 229.97,286.52 L 228.80,287.91 L 226.37,290.68 L 225.00,292.06 L 218.50,298.63 L 222.78,297.19 L 226.60,295.56 L 225.46,296.16 L 222.82,297.40 L 217.57,299.35 L 214.92,300.24 L 209.31,301.57 L 207.87,301.87 L 204.83,302.37 L 203.29,302.60 L 200.01,302.98 L 198.34,303.15 L 194.76,303.41 L 189.00,303.70 L 187.01,303.77 L 183.32,303.84 L 181.55,303.87 L 178.57,303.86 L 177.88,303.86 L 176.70,303.83 L 176.14,303.81 L 175.25,303.76 L 174.84,303.73 L 174.28,303.66 L 174.04,303.63 L 173.85,303.54 L 173.75,303.44 L 173.86,302.83 L 173.96,302.46 L 174.45,301.34 L 174.74,300.72 L 175.60,299.12 L 176.07,298.27 L 177.27,296.24 L 177.91,295.17 L 179.43,292.73 L 180.23,291.46 L 182.05,288.65 L 183.00,287.20 L 185.10,284.06 L 188.55,279.00 L 189.55,277.56 L 191.50,274.65 L 192.45,273.21 L 194.16,270.56 L 194.97,269.29 L 196.25,267.19 L 196.54,266.71 L 196.99,265.92 L 197.47,265.00 L 199.15,261.50 L 207.29,261.19 L 209.72,261.10 L 214.71,260.41 L 215.91,260.21 L 218.12,259.72 L 220.97,258.89 L 222.49,258.34 L 225.76,257.25 L 226.54,257.00 L 227.91,256.57 L 229.53,256.11 L 230.77,255.78 L 233.25,254.69 L 234.46,254.09 L 236.56,252.69 L 237.53,251.99 L 238.83,250.59 L 239.09,250.25 L 239.38,249.64 L 239.44,248.83 L 239.24,248.20 L 239.32,247.32 L 239.44,246.95 L 240.11,246.63 M 256.61,264.16 L 256.09,265.94 L 254.57,269.46 L 253.73,271.21 L 251.61,274.65 L 250.48,276.35 L 247.80,279.65 L 246.40,281.27 L 243.22,284.38 L 241.57,285.90 L 241.01,286.33 L 244.48,283.12 L 246.08,281.36 L 249.16,277.78 L 250.48,275.91 L 252.99,272.14 L 253.99,270.22 L 255.82,266.38 L 256.44,264.47 L 257.39,261.01 M 242.08,246.66 L 243.64,247.11 L 242.05,246.66 M 253.52,198.48 L 254.80,198.45 L 255.34,198.41 L 257.28,198.21 L 258.05,197.99 L 259.39,197.47 L 258.45,197.91 L 257.64,198.20 L 255.66,198.42 L 255.10,198.46 L 253.77,198.49 L 251.35,198.50 L 251.25,198.50 M 260.87,196.54 L 260.00,197.19 L 259.55,197.40 L 260.23,196.96 L 261.52,196.05 M 314.59,155.77 L 318.02,156.11 L 324.79,157.33 L 328.15,158.02 L 334.63,159.95 L 343.82,163.63 L 353.14,168.11 L 337.82,178.19 L 335.71,179.58 L 331.58,182.34 L 329.56,183.69 L 325.91,186.17 L 325.05,186.76 L 323.49,187.83 L 322.74,188.35 L 321.44,189.26 L 320.83,189.69 L 319.85,190.40 L 318.79,191.19 L 317.89,191.89 L 316.64,192.80 L 316.06,193.18 L 315.17,193.49 L 314.73,193.57 L 313.82,193.34 L 311.99,192.49 L 311.22,192.09 L 309.42,191.34 L 308.49,190.97 L 306.41,190.29 L 304.28,189.62 L 299.40,188.55 L 296.90,188.06 L 291.62,187.41 L 283.77,187.00 L 282.40,187.00 L 280.08,187.03 L 278.99,187.05 L 277.14,187.15 L 276.26,187.22 L 274.75,187.45 L 274.02,187.58 L 272.71,187.98 L 272.06,188.21 L 270.82,188.83 L 270.19,189.17 L 268.89,190.05 L 268.21,190.53 L 266.71,191.72 L 264.10,193.91 L 263.43,194.47 L 263.14,194.72 L 265.75,192.27 L 266.45,191.44 L 266.66,191.11 L 267.00,190.50 L 267.00,190.31 L 267.23,189.29 L 267.58,188.21 L 267.84,187.52 L 268.41,186.07 L 268.75,185.25 L 269.47,183.58 L 269.86,182.73 L 272.26,178.38 L 274.23,175.49 L 275.36,174.09 L 277.73,171.31 L 279.03,169.99 L 281.70,167.40 L 283.12,166.20 L 286.00,163.87 L 287.49,162.83 L 290.48,160.85 L 291.99,160.02 L 295.00,158.47 L 296.48,157.88 L 299.42,156.83 L 300.82,156.53 L 302.74,156.06 L 303.54,155.80 L 303.73,155.70 L 303.94,155.52 L 303.84,155.45 L 303.50,155.34 L 303.14,155.32 L 302.99,155.31 L 304.28,155.27 L 307.70,155.26 M 244.00,193.61 L 244.00,193.69 L 244.00,193.24 L 244.18,192.31 M 233.15,188.86 L 233.23,190.21 L 233.11,190.71 L 232.80,191.48 L 232.42,192.00 L 232.32,192.00 L 231.89,191.48 L 231.66,191.15 L 231.11,190.21 L 230.93,189.86 L 230.73,189.34 L 230.66,189.11 L 230.72,188.80 L 230.78,188.66 L 231.11,188.51 L 231.93,188.43 L 232.53,188.43 M 244.90,189.22 L 244.50,190.62 L 244.79,189.44 L 245.00,188.91 M 246.18,186.01 L 246.44,185.40 L 246.78,184.81 M 270.13,162.52 L 268.72,163.30 L 265.93,164.94 L 264.55,165.87 L 261.82,167.81 L 260.45,168.91 L 257.71,171.17 L 256.32,172.43 L 251.94,177.10 L 251.95,177.09 L 254.37,174.39 L 255.62,173.06 L 258.36,170.52 L 259.76,169.28 L 262.77,166.99 L 267.50,163.91 L 269.97,162.48 L 272.15,161.56 M 277.56,159.38 L 276.95,159.61 L 278.33,159.09 L 278.83,158.95 M 297.78,155.55 L 296.75,155.65 L 294.59,155.87 L 293.38,156.01 L 287.65,156.85 L 284.43,157.48 L 284.46,157.47 L 287.58,156.75 L 294.15,155.84 L 297.47,155.48 L 299.48,155.42 Z" fill="rgba(71,97,144,1)"/>
<path d="M 225.00,292.06 L 226.37,290.68 L 228.80,287.91 L 229.97,286.52 L 232.01,283.72 L 232.99,282.31 L 234.65,279.45 L 235.44,278.01 L 236.73,275.06 L 237.33,273.56 L 238.27,270.49 L 238.70,268.93 L 239.30,265.70 L 239.56,264.07 L 239.83,260.65 L 239.87,255.29 L 239.83,254.17 L 239.80,252.06 L 239.80,251.05 L 239.83,249.33 L 239.85,248.54 L 239.94,247.39 L 240.14,246.53 L 240.21,246.45 L 240.69,246.44 L 240.97,246.45 L 241.78,246.58 L 244.97,247.49 L 246.15,247.90 L 248.97,248.56 L 249.67,248.69 L 250.96,248.88 L 252.59,249.00 L 253.71,249.00 L 255.37,249.52 L 255.74,249.70 L 256.36,250.21 L 256.64,250.50 L 257.09,251.22 L 257.29,251.61 L 257.57,252.56 L 257.69,253.07 L 257.82,254.26 L 257.87,254.89 L 257.86,256.34 L 257.68,258.83 L 257.49,260.67 L 256.44,264.47 L 255.82,266.38 L 253.99,270.22 L 252.99,272.14 L 250.48,275.91 L 249.16,277.78 L 246.08,281.36 L 244.48,283.12 L 240.95,286.39 L 239.13,287.98 L 235.25,290.83 L 233.27,292.18 L 229.14,294.48 L 222.78,297.19 L 218.50,298.63 L 225.00,292.06 M 245.46,231.60 L 244.38,231.13 L 242.64,230.09 L 241.83,229.55 L 240.56,228.27 L 239.98,227.60 L 239.07,225.97 L 238.00,222.99 L 237.74,222.02 L 237.54,220.14 L 237.50,219.22 L 237.73,217.48 L 237.89,216.63 L 238.51,215.06 L 238.86,214.30 L 239.83,212.94 L 240.35,212.29 L 241.65,211.17 L 242.33,210.65 L 243.92,209.82 L 244.75,209.45 L 246.60,208.94 L 249.64,208.59 L 250.64,208.57 L 252.14,208.66 L 252.83,208.74 L 253.97,209.15 L 254.52,209.40 L 255.62,210.26 L 257.58,212.24 L 258.28,213.00 L 259.30,214.29 L 259.75,214.91 L 260.34,216.09 L 260.59,216.69 L 260.86,218.00 L 261.00,220.35 L 261.00,221.58 L 260.55,223.84 L 260.25,224.94 L 259.21,226.89 L 258.62,227.83 L 257.01,229.46 L 253.96,231.52 L 253.10,231.97 L 251.73,232.53 L 251.08,232.75 L 249.89,232.87 L 249.29,232.88 L 247.96,232.56 L 247.25,232.35 M 276.50,218.31 L 275.34,217.97 L 273.70,217.36 L 272.96,217.04 L 271.87,216.22 L 271.36,215.75 L 270.45,214.38 L 270.22,213.99 L 269.72,213.04 L 268.90,211.33 L 266.29,205.82 L 270.90,202.95 L 272.34,202.06 L 275.43,200.64 L 277.01,199.99 L 280.34,199.07 L 282.03,198.67 L 285.56,198.24 L 287.34,198.09 L 291.00,198.16 L 292.85,198.25 L 296.60,198.80 L 298.49,199.14 L 302.28,200.18 L 304.18,200.76 L 307.96,202.29 L 313.57,205.11 L 314.21,205.48 L 315.65,206.40 L 316.39,206.88 L 317.95,207.96 L 319.51,209.06 L 322.42,211.30 L 323.09,211.83 L 324.21,212.78 L 324.73,213.22 L 325.45,213.92 L 325.75,214.23 L 325.94,214.57 L 325.50,214.58 L 323.92,214.00 L 320.83,213.07 L 319.30,212.65 L 316.28,212.02 L 314.79,211.74 L 311.84,211.41 L 310.38,211.29 L 307.49,211.26 L 306.06,211.28 L 303.23,211.56 L 301.81,211.73 L 299.02,212.31 L 297.63,212.64 L 294.88,213.52 L 290.77,215.18 L 289.84,215.61 L 288.14,216.46 L 287.33,216.87 L 285.99,217.63 L 285.37,217.99 L 284.53,218.57 L 284.00,219.15 L 284.00,219.42 L 283.69,219.73 L 283.46,219.84 L 282.54,219.81 L 281.99,219.75 L 280.25,219.35 L 279.76,219.22 L 278.58,218.90 L 277.95,218.73 M 211.81,214.07 L 209.96,213.35 L 206.80,211.84 L 205.29,211.05 L 202.55,209.22 L 201.19,208.24 L 198.48,205.82 L 197.79,205.17 L 196.34,203.70 L 194.05,201.23 L 192.53,199.55 L 189.55,195.66 L 188.11,193.69 L 185.61,189.79 L 185.04,188.85 L 184.07,187.10 L 183.62,186.26 L 182.93,184.78 L 182.63,184.08 L 182.29,182.96 L 182.23,181.80 L 182.28,181.65 L 182.59,181.71 L 182.76,181.80 L 183.26,182.30 L 183.54,182.60 L 184.17,183.47 L 185.21,185.10 L 185.95,186.36 L 187.86,189.08 L 188.87,190.45 L 191.22,193.30 L 192.44,194.73 L 195.10,197.59 L 196.46,199.01 L 199.31,201.76 L 200.75,203.11 L 203.65,205.62 L 205.09,206.84 L 207.92,209.00 L 209.31,210.02 L 211.93,211.71 L 215.48,213.56 L 216.45,213.96 L 217.97,214.74 L 218.29,214.92 L 218.72,215.21 L 219.00,215.51 L 219.00,215.74 L 218.54,215.93 L 218.24,215.98 L 217.18,215.82 L 216.57,215.70 L 214.93,215.20 L 214.03,214.91 M 244.00,194.41 L 244.00,193.61 L 244.23,191.91 L 244.38,191.04 L 244.90,189.22 L 245.49,187.38 L 247.43,183.51 L 248.52,181.57 L 251.33,177.75 L 256.32,172.43 L 257.71,171.17 L 260.45,168.91 L 261.82,167.81 L 264.55,165.87 L 265.93,164.94 L 268.72,163.30 L 270.13,162.52 L 273.03,161.15 L 274.49,160.50 L 277.56,159.38 L 279.12,158.86 L 282.41,157.96 L 284.09,157.54 L 287.65,156.85 L 293.38,156.01 L 294.59,155.87 L 296.75,155.65 L 297.78,155.55 L 299.54,155.41 L 300.36,155.35 L 301.69,155.30 L 302.29,155.29 L 303.14,155.32 L 303.50,155.34 L 303.84,155.45 L 303.94,155.52 L 303.73,155.70 L 303.54,155.80 L 302.74,156.06 L 300.82,156.53 L 299.42,156.83 L 296.48,157.88 L 295.00,158.47 L 291.99,160.02 L 290.48,160.85 L 287.49,162.83 L 286.00,163.87 L 283.12,166.20 L 281.70,167.40 L 279.03,169.99 L 277.73,171.31 L 275.36,174.09 L 274.23,175.49 L 272.26,178.38 L 269.86,182.73 L 269.47,183.58 L 268.75,185.25 L 268.41,186.07 L 267.84,187.52 L 267.58,188.21 L 267.23,189.29 L 267.00,190.31 L 267.00,190.50 L 266.66,191.11 L 266.45,191.44 L 265.75,192.27 L 262.75,195.08 L 261.76,195.88 L 260.23,196.96 L 259.50,197.43 L 258.05,197.99 L 257.28,198.21 L 255.34,198.41 L 254.80,198.45 L 253.52,198.48 L 251.25,198.50 L 244.00,198.50 L 244.00,194.41 Z" fill="rgba(128,236,247,1)"/>
</g>
</svg>